# xmcd
#
# Track frame offsets:
#	182
#	41435
#	115690
#	156085
#	202267
#	267435
#	283990
#
# Disc length: 3853 seconds
#
# Revision: 1
# Processed by: cddbd v1.5.1PL0 Copyright (c) Steve Scherf et al.
# Submitted via: CDex 1.50Beta5
#
DISCID=670f0b07
DTITLE=Kyung-Wha Chung - French Violin Music
DYEAR=1900
DGENRE=Classical
TTITLE0=Chung/Dutoit/Royal P.O./Saint-Sa将ウns/Introduction and Rond Capriccioso,Op.28
TTITLE1=Chung/Dutoit/Royal P.O./Chausson/Po将アme,Op.25
TTITLE2=Chung/Dutoit/Royal P.O./Saint-Sa将ウns/Havanaise,Op.83
TTITLE3=Chung/Dutoit/Royal P.O./Ravel/Tzigane
TTITLE4=Chung/Lawrence Foster/London S.O./Vieuxtemps/Violin Concerto No.5 in A minor,Op.37--Allegro non troppo
TTITLE5=Chung/Lawrence Foster/London S.O./Vieuxtemps/Violin Concerto No.5--Adagio
TTITLE6=Chung/Lawrence Foster/London S.O./Vieuxtemps/Violin Concerto No.5--Allegro con fuoco
EXTD=
EXTT0=
EXTT1=
EXTT2=
EXTT3=
EXTT4=
EXTT5=
EXTT6=
PLAYORDER=
